<svg id="Layer_10" xmlns="http://www.w3.org/2000/svg" width="15" height="15.007" viewBox="0 0 15 15.007">
  <path d="M30.976,28.31l-4-3.993a.335.335,0,0,1,0-.476l3.966-3.96A1.894,1.894,0,1,0,28.261,17.2L24.3,21.159a.344.344,0,0,1-.476,0l-3.993-3.993a1.9,1.9,0,0,0-2.681,0l-.065.072a1.9,1.9,0,0,0,0,2.681l3.989,3.993a.339.339,0,0,1,0,.476l-3.96,3.96a1.894,1.894,0,1,0,2.679,2.679l3.959-3.958a.337.337,0,0,1,.476,0l4,3.993a1.894,1.894,0,0,0,2.679,0l.072-.072A1.9,1.9,0,0,0,30.976,28.31Z" transform="translate(-16.531 -16.611)" fill="currentColor"/>
</svg>
