<svg xmlns="http://www.w3.org/2000/svg" width="24.385" height="24.382" viewBox="0 0 24.385 24.382">
    <path d="M78.179,74.555V57.818c0-.29.005-.58.005-.87a3.147,3.147,0,0,0-1.7-2.81A3.2,3.2,0,0,0,75.05,53.8c-.088,0-.176.005-.266.005H57.057c-.075,0-.146-.005-.221-.005a3.127,3.127,0,0,0-2.07.862,3.209,3.209,0,0,0-.961,2.371V74.749c0,.1-.005.194-.005.29a3.264,3.264,0,0,0,.279,1.32,3.139,3.139,0,0,0,2.858,1.823c.277,0,.553-.005.83-.005H75.1a3.094,3.094,0,0,0,3.071-2.81A7.5,7.5,0,0,0,78.179,74.555Zm-5.854-7.929a1.064,1.064,0,0,1-2.129,0V63.3l-2.107,2.1-3.044,3.041L62.53,70.96l-.591.591-.2.2c-.088.088-.176.173-.261.261h0a1.079,1.079,0,0,1-1.506,0,.123.123,0,0,1-.019-.019c-.016-.016-.032-.032-.045-.048s-.013-.016-.021-.024l0,0a.081.081,0,0,1-.013-.019l0,0h0c0-.005-.008-.013-.013-.019h-.008a.009.009,0,0,1,0-.005v0h0v-.013h0a0,0,0,0,1,0-.008v-.005h0c-.005,0-.011,0-.013-.005s0,0-.005-.005a0,0,0,0,1,0,0s-.005-.005-.005-.008h0s0-.005,0-.005l-.019-.027-.013-.021c0-.008-.008-.016-.011-.024s0-.005-.005-.008,0-.005-.005-.008h0v0h0c0-.005-.005-.008-.008-.013a0,0,0,0,0,0,0v0s0-.005,0-.008,0-.005-.005-.008,0-.008-.005-.013a.034.034,0,0,1,0-.016h0v-.008a.075.075,0,0,0-.011-.035L59.72,71.6a.129.129,0,0,1-.008-.019.976.976,0,0,1-.035-.176c0-.016,0-.035-.005-.051a1.1,1.1,0,0,1,.3-.846l.016-.019c.42-.431.851-.851,1.277-1.277L63.9,66.583l3.041-3.044q.87-.87,1.743-1.746H65.356a1.064,1.064,0,0,1,0-2.129H71.25a1.061,1.061,0,0,1,.625.213l.008.008a.009.009,0,0,0,.005,0s0,0,.005,0l.011.008a.978.978,0,0,1,.1.082,1.063,1.063,0,0,1,.136.154l.016.024.019.027a.715.715,0,0,1,.043.077.8.8,0,0,1,.077.258h0c.005.029.008.059.011.088a.643.643,0,0,1,.016.122v5.894Z" transform="translate(-53.8 -53.8)" fill="currentColor"/></svg>
